<svg viewBox="0 0 200 200" xmlns="http://www.w3.org/2000/svg"><defs><radialGradient id="bg" cx="50%" cy="40%"><stop offset="0%" stop-color="#FEF08A"/><stop offset="100%" stop-color="#CA8A04"/></radialGradient></defs><circle cx="100" cy="105" r="78" fill="url(#bg)"/><circle cx="100" cy="110" rx="54" ry="42" fill="#FDE68A"/><ellipse cx="76" cy="78" rx="14" ry="16" fill="#F59E0B"/><ellipse cx="124" cy="78" rx="14" ry="16" fill="#F59E0B"/><ellipse cx="76" cy="78" rx="8" ry="10" fill="#F9A8D4"/><ellipse cx="124" cy="78" rx="8" ry="10" fill="#F9A8D4"/><ellipse cx="76" cy="78" rx="5" ry="8" fill="#34D399"/><ellipse cx="124" cy="78" rx="5" ry="8" fill="#34D399"/><circle cx="73" cy="75" r="2" fill="white"/><circle cx="121" cy="75" r="2" fill="white"/><ellipse cx="100" cy="94" rx="5" ry="3.5" fill="#F9A8D4"/><path d="M96 99 Q100 104 104 99" stroke="#1C1917" stroke-width="1.8" fill="none" stroke-linecap="round"/><circle cx="62" cy="94" r="7" fill="#FCA5A5" opacity="0.5"/><circle cx="138" cy="94" r="7" fill="#FCA5A5" opacity="0.5"/><path d="M86 70 Q100 58 114 70" stroke="#F59E0B" stroke-width="5" fill="none" stroke-linecap="round"/></svg>