<svg viewBox="0 0 200 200" xmlns="http://www.w3.org/2000/svg"><defs><radialGradient id="bg" cx="50%" cy="40%"><stop offset="0%" stop-color="#D1FAE5"/><stop offset="100%" stop-color="#059669"/></radialGradient></defs><circle cx="100" cy="105" r="82" fill="url(#bg)"/><ellipse cx="75" cy="55" rx="10" ry="25" fill="#D4A574"/><ellipse cx="125" cy="55" rx="10" ry="25" fill="#D4A574"/><ellipse cx="75" cy="55" rx="5" ry="18" fill="#F9A8D4" opacity="0.4"/><ellipse cx="125" cy="55" rx="5" ry="18" fill="#F9A8D4" opacity="0.4"/><ellipse cx="100" cy="112" rx="42" ry="38" fill="#D4A574"/><ellipse cx="100" cy="118" rx="28" ry="22" fill="#FEFEFE" opacity="0.6"/><circle cx="88" cy="95" r="6" fill="white"/><circle cx="112" cy="95" r="6" fill="white"/><circle cx="88" cy="95" r="4" fill="#1C1917"/><circle cx="112" cy="95" r="4" fill="#1C1917"/><circle cx="86.5" cy="93.5" r="1.2" fill="white"/><circle cx="110.5" cy="93.5" r="1.2" fill="white"/><ellipse cx="100" cy="100" rx="3.5" ry="2.5" fill="#F9A8D4"/><path d="M97 104 Q100 107 103 104" stroke="#1C1917" stroke-width="1.5" fill="none" stroke-linecap="round"/><circle cx="70" cy="100" r="5" fill="#FCA5A5" opacity="0.4"/><circle cx="130" cy="100" r="5" fill="#FCA5A5" opacity="0.4"/></svg>