<svg viewBox="0 0 200 200" xmlns="http://www.w3.org/2000/svg"><defs><radialGradient id="bg" cx="50%" cy="40%"><stop offset="0%" stop-color="#FEE2E2"/><stop offset="100%" stop-color="#DC2626"/></radialGradient></defs><circle cx="100" cy="105" r="82" fill="url(#bg)"/><polygon points="52,62 65,22 82,58" fill="#F5B8A0"/><polygon points="148,62 135,22 118,58" fill="#F5B8A0"/><polygon points="58,62 68,30 78,58" fill="#FCA5A5"/><polygon points="142,62 132,30 122,58" fill="#FCA5A5"/><ellipse cx="100" cy="115" rx="52" ry="40" fill="#F5B8A0"/><ellipse cx="76" cy="88" rx="12" ry="14" fill="white"/><ellipse cx="124" cy="88" rx="12" ry="14" fill="white"/><ellipse cx="76" cy="90" rx="7" ry="9" fill="#10B981"/><ellipse cx="124" cy="90" rx="7" ry="9" fill="#10B981"/><circle cx="73" cy="86" r="2" fill="white"/><circle cx="121" cy="86" r="2" fill="white"/><ellipse cx="100" cy="104" rx="5" ry="3.5" fill="#F9A8D4"/><path d="M96 109 Q100 114 104 109" stroke="#1C1917" stroke-width="1.8" fill="none" stroke-linecap="round"/><circle cx="62" cy="104" r="7" fill="#FCA5A5" opacity="0.5"/><circle cx="138" cy="104" r="7" fill="#FCA5A5" opacity="0.5"/><polygon points="45,62 60,20 80,58" fill="#F5B8A0"/><polygon points="155,62 140,20 120,58" fill="#F5B8A0"/><polygon points="52,62 64,30 76,58" fill="#FCA5A5"/><polygon points="148,62 136,30 124,58" fill="#FCA5A5"/></svg>