<svg viewBox="0 0 200 200" xmlns="http://www.w3.org/2000/svg"><defs><radialGradient id="bg" cx="50%" cy="40%"><stop offset="0%" stop-color="#FECDD3"/><stop offset="100%" stop-color="#E11D48"/></radialGradient></defs><circle cx="100" cy="100" r="72" fill="url(#bg)"/><circle cx="100" cy="105" rx="50" ry="42" fill="#FDE68A"/><ellipse cx="78" cy="82" rx="11" ry="13" fill="#1C1917"/><ellipse cx="122" cy="82" rx="11" ry="13" fill="#1C1917"/><circle cx="74" cy="77" r="4.5" fill="white"/><circle cx="118" cy="77" r="4.5" fill="white"/><circle cx="76" cy="75" r="2.2" fill="#1C1917"/><circle cx="120" cy="75" r="2.2" fill="#1C1917"/><circle cx="71" cy="73" r="0.9" fill="white"/><circle cx="115" cy="73" r="0.9" fill="white"/><ellipse cx="100" cy="96" rx="6" ry="3.5" fill="#1C1917"/><path d="M95 101 Q100 107 105 101" stroke="#1C1917" stroke-width="1.8" fill="none" stroke-linecap="round"/><circle cx="60" cy="96" r="7" fill="#FCA5A5" opacity="0.5"/><circle cx="140" cy="96" r="7" fill="#FCA5A5" opacity="0.5"/><circle cx="54" cy="85" r="24" fill="#D97706"/><circle cx="146" cy="85" r="24" fill="#D97706"/><circle cx="100" cy="34" r="28" fill="#D97706"/></svg>