<svg viewBox="0 0 200 200" xmlns="http://www.w3.org/2000/svg"><defs><radialGradient id="bg" cx="50%" cy="40%"><stop offset="0%" stop-color="#FEF08A"/><stop offset="100%" stop-color="#EAB308"/></radialGradient></defs><ellipse cx="100" cy="115" rx="58" ry="54" fill="url(#bg)"/><ellipse cx="100" cy="118" rx="42" ry="34" fill="#FEF3C7"/><ellipse cx="78" cy="82" rx="18" ry="20" fill="#1C1917"/><ellipse cx="122" cy="82" rx="18" ry="20" fill="#1C1917"/><circle cx="72" cy="74" r="7" fill="white"/><circle cx="116" cy="74" r="7" fill="white"/><circle cx="75" cy="72" r="3.5" fill="#1C1917"/><circle cx="119" cy="72" r="3.5" fill="#1C1917"/><circle cx="69" cy="70" r="1.5" fill="white"/><circle cx="113" cy="70" r="1.5" fill="white"/><ellipse cx="100" cy="98" rx="6" ry="3.5" fill="#1C1917"/><path d="M95 103 Q100 109 105 103" stroke="#1C1917" stroke-width="2" fill="none" stroke-linecap="round"/><circle cx="58" cy="98" r="8" fill="#FCA5A5" opacity="0.5"/><circle cx="142" cy="98" r="8" fill="#FCA5A5" opacity="0.5"/><ellipse cx="48" cy="105" rx="24" ry="30" fill="#FCD34D" transform="rotate(-30 48 105)"/><ellipse cx="152" cy="105" rx="24" ry="30" fill="#FCD34D" transform="rotate(30 152 105)"/></svg>