<svg viewBox="0 0 200 200" xmlns="http://www.w3.org/2000/svg"><defs><radialGradient id="bg" cx="50%" cy="40%"><stop offset="0%" stop-color="#DBEAFE"/><stop offset="100%" stop-color="#3B82F6"/></radialGradient></defs><circle cx="100" cy="100" r="95" fill="url(#bg)"/><ellipse cx="100" cy="120" rx="52" ry="42" fill="#E2E8F0"/><polygon points="58,74 100,50 142,74" fill="#475569"/><ellipse cx="72" cy="82" rx="16" ry="18" fill="#3B82F6"/><ellipse cx="128" cy="82" rx="16" ry="18" fill="#3B82F6"/><circle cx="67" cy="76" r="6" fill="white"/><circle cx="123" cy="76" r="6" fill="white"/><circle cx="70" cy="74" r="3" fill="#1E3A5F"/><circle cx="126" cy="74" r="3" fill="#1E3A5F"/><circle cx="64" cy="72" r="1.2" fill="white"/><circle cx="120" cy="72" r="1.2" fill="white"/><ellipse cx="100" cy="100" rx="10" ry="6" fill="#475569"/><path d="M92 108 Q100 118 108 108" stroke="#475569" stroke-width="2.5" fill="none" stroke-linecap="round"/><circle cx="54" cy="100" r="9" fill="#FCA5A5" opacity="0.4"/><circle cx="146" cy="100" r="9" fill="#FCA5A5" opacity="0.4"/><ellipse cx="42" cy="110" rx="22" ry="32" fill="#94A3B8" transform="rotate(-20 42 110)"/><ellipse cx="158" cy="110" rx="22" ry="32" fill="#94A3B8" transform="rotate(20 158 110)"/></svg>