<svg viewBox="0 0 200 200" xmlns="http://www.w3.org/2000/svg"><defs><radialGradient id="bg" cx="50%" cy="40%"><stop offset="0%" stop-color="#D1FAE5"/><stop offset="100%" stop-color="#059669"/></radialGradient></defs><circle cx="100" cy="105" r="82" fill="url(#bg)"/><ellipse cx="100" cy="108" rx="32" ry="25" fill="#FCD34D"/><path d="M132 108 Q155 85 162 108 Q155 131 132 108" fill="#EC4899" opacity="0.8"/><path d="M138 98 Q152 90 155 108 Q152 126 138 118" fill="#8B5CF6" opacity="0.6"/><circle cx="145" cy="108" r="3" fill="#FCD34D" opacity="0.5"/><circle cx="150" cy="100" r="2" fill="#FCD34D" opacity="0.5"/><circle cx="150" cy="116" r="2" fill="#FCD34D" opacity="0.5"/><circle cx="88" cy="98" r="6" fill="white"/><circle cx="112" cy="98" r="6" fill="white"/><circle cx="88" cy="98" r="4" fill="#1C1917"/><circle cx="112" cy="98" r="4" fill="#1C1917"/><circle cx="86.5" cy="96.5" r="1.2" fill="white"/><circle cx="110.5" cy="96.5" r="1.2" fill="white"/><ellipse cx="100" cy="115" rx="2" ry="1.5" fill="#F9A8D4"/></svg>