<svg viewBox="0 0 200 200" xmlns="http://www.w3.org/2000/svg"><defs><radialGradient id="bg" cx="50%" cy="40%"><stop offset="0%" stop-color="#D1FAE5"/><stop offset="100%" stop-color="#047857"/></radialGradient></defs><circle cx="100" cy="105" r="82" fill="url(#bg)"/><ellipse cx="100" cy="115" rx="50" ry="35" fill="#065F46"/><path d="M75 100 L85 105 L95 100 L105 105 L115 100 L125 105" stroke="#047857" stroke-width="2" fill="none"/><circle cx="100" cy="95" r="22" fill="#FCD34D"/><ellipse cx="70" cy="130" rx="12" ry="8" fill="#FCD34D"/><ellipse cx="130" cy="130" rx="12" ry="8" fill="#FCD34D"/><line x1="82" y1="92" x2="86" y2="98" stroke="#065F46" stroke-width="2.5" stroke-linecap="round"/><line x1="114" y1="92" x2="118" y2="98" stroke="#065F46" stroke-width="2.5" stroke-linecap="round"/><circle cx="92" cy="88" r="6" fill="white"/><circle cx="108" cy="88" r="6" fill="white"/><circle cx="92" cy="88" r="4" fill="#1C1917"/><circle cx="108" cy="88" r="4" fill="#1C1917"/><circle cx="90.5" cy="86.5" r="1.2" fill="white"/><circle cx="106.5" cy="86.5" r="1.2" fill="white"/><ellipse cx="100" cy="102" rx="2" ry="1.5" fill="#F9A8D4"/></svg>