<svg viewBox="0 0 200 200" xmlns="http://www.w3.org/2000/svg"><defs><radialGradient id="bg" cx="50%" cy="40%"><stop offset="0%" stop-color="#C7D2FE"/><stop offset="100%" stop-color="#4338CA"/></radialGradient></defs><circle cx="100" cy="105" r="82" fill="url(#bg)"/><polygon points="52,62 65,22 82,58" fill="#8B7355"/><polygon points="148,62 135,22 118,58" fill="#8B7355"/><polygon points="58,62 68,30 78,58" fill="#FCA5A5"/><polygon points="142,62 132,30 122,58" fill="#FCA5A5"/><ellipse cx="100" cy="115" rx="52" ry="40" fill="#FEFEFE"/><ellipse cx="76" cy="88" rx="12" ry="14" fill="white"/><ellipse cx="124" cy="88" rx="12" ry="14" fill="white"/><ellipse cx="76" cy="90" rx="7" ry="9" fill="#60A5FA"/><ellipse cx="124" cy="90" rx="7" ry="9" fill="#60A5FA"/><circle cx="73" cy="86" r="2" fill="white"/><circle cx="121" cy="86" r="2" fill="white"/><ellipse cx="100" cy="104" rx="5" ry="3.5" fill="#F9A8D4"/><path d="M96 109 Q100 114 104 109" stroke="#1C1917" stroke-width="1.8" fill="none" stroke-linecap="round"/><circle cx="62" cy="104" r="7" fill="#FCA5A5" opacity="0.5"/><circle cx="138" cy="104" r="7" fill="#FCA5A5" opacity="0.5"/><ellipse cx="76" cy="82" rx="10" ry="12" fill="#8B7355"/><ellipse cx="124" cy="82" rx="10" ry="12" fill="#8B7355"/><path d="M85 100 L100 95 L115 100" stroke="#FEFEFE" stroke-width="5" fill="none"/><ellipse cx="100" cy="130" rx="15" ry="8" fill="#FEFEFE"/></svg>