<svg viewBox="0 0 200 200" xmlns="http://www.w3.org/2000/svg"><defs><radialGradient id="bg" cx="50%" cy="40%"><stop offset="0%" stop-color="#FED7AA"/><stop offset="100%" stop-color="#EA580C"/></radialGradient></defs><ellipse cx="100" cy="110" rx="72" ry="64" fill="url(#bg)"/><ellipse cx="100" cy="115" rx="50" ry="38" fill="#FEF3C7"/><ellipse cx="76" cy="82" rx="12" ry="14" fill="#FDE68A"/><ellipse cx="124" cy="82" rx="12" ry="14" fill="#FDE68A"/><ellipse cx="76" cy="82" rx="7" ry="9" fill="#F9A8D4"/><ellipse cx="124" cy="82" rx="7" ry="9" fill="#F9A8D4"/><ellipse cx="76" cy="82" rx="4" ry="7" fill="#F97316"/><ellipse cx="124" cy="82" rx="4" ry="7" fill="#F97316"/><circle cx="73" cy="79" r="1.8" fill="white"/><circle cx="121" cy="79" r="1.8" fill="white"/><ellipse cx="100" cy="98" rx="5" ry="3.5" fill="#F9A8D4"/><path d="M96 103 Q100 108 104 103" stroke="#1C1917" stroke-width="1.8" fill="none" stroke-linecap="round"/><circle cx="62" cy="98" r="7" fill="#FCA5A5" opacity="0.5"/><circle cx="138" cy="98" r="7" fill="#FCA5A5" opacity="0.5"/><path d="M88 74 Q100 64 112 74" stroke="#FDE68A" stroke-width="5" fill="none" stroke-linecap="round"/></svg>