<svg viewBox="0 0 200 200" xmlns="http://www.w3.org/2000/svg"><defs><radialGradient id="bg" cx="50%" cy="40%"><stop offset="0%" stop-color="#D9F99D"/><stop offset="100%" stop-color="#65A30D"/></radialGradient></defs><circle cx="100" cy="100" r="95" fill="url(#bg)"/><ellipse cx="100" cy="120" rx="50" ry="42" fill="#B8860B"/><polygon points="60,70 100,42 140,70" fill="#1C1917"/><ellipse cx="76" cy="80" rx="16" ry="18" fill="#1C1917"/><ellipse cx="124" cy="80" rx="16" ry="18" fill="#1C1917"/><circle cx="71" cy="74" r="6" fill="white"/><circle cx="119" cy="74" r="6" fill="white"/><circle cx="74" cy="72" r="3" fill="#1C1917"/><circle cx="122" cy="72" r="3" fill="#1C1917"/><circle cx="68" cy="70" r="1.2" fill="white"/><circle cx="116" cy="70" r="1.2" fill="white"/><ellipse cx="100" cy="98" rx="10" ry="6" fill="#1C1917"/><path d="M92 106 Q100 116 108 106" stroke="#1C1917" stroke-width="2.5" fill="none" stroke-linecap="round"/><circle cx="56" cy="98" r="9" fill="#FCA5A5" opacity="0.5"/><circle cx="144" cy="98" r="9" fill="#FCA5A5" opacity="0.5"/><ellipse cx="52" cy="110" rx="20" ry="34" fill="#8B6914" transform="rotate(-15 52 110)"/><ellipse cx="148" cy="110" rx="20" ry="34" fill="#8B6914" transform="rotate(15 148 110)"/></svg>