<svg viewBox="0 0 200 200" xmlns="http://www.w3.org/2000/svg"><defs><radialGradient id="bg" cx="50%" cy="40%"><stop offset="0%" stop-color="#FED7AA"/><stop offset="100%" stop-color="#F97316"/></radialGradient></defs><circle cx="100" cy="100" r="95" fill="url(#bg)"/><ellipse cx="100" cy="125" rx="52" ry="42" fill="#FCD34D"/><ellipse cx="100" cy="128" rx="38" ry="28" fill="#FEF3C7"/><ellipse cx="76" cy="83" rx="17" ry="19" fill="#1C1917"/><ellipse cx="124" cy="83" rx="17" ry="19" fill="#1C1917"/><circle cx="71" cy="77" r="6.5" fill="white"/><circle cx="119" cy="77" r="6.5" fill="white"/><circle cx="74" cy="75" r="3.2" fill="#1C1917"/><circle cx="122" cy="75" r="3.2" fill="#1C1917"/><circle cx="68" cy="73" r="1.3" fill="white"/><circle cx="116" cy="73" r="1.3" fill="white"/><ellipse cx="100" cy="100" rx="11" ry="7" fill="#1C1917"/><path d="M91 108 Q100 119 109 108" stroke="#1C1917" stroke-width="3" fill="none" stroke-linecap="round"/><circle cx="56" cy="100" r="10" fill="#FCA5A5" opacity="0.5"/><circle cx="144" cy="100" r="10" fill="#FCA5A5" opacity="0.5"/><ellipse cx="44" cy="108" rx="24" ry="32" fill="#D97706" transform="rotate(-25 44 108)"/><ellipse cx="156" cy="108" rx="24" ry="32" fill="#D97706" transform="rotate(25 156 108)"/></svg>