<svg viewBox="0 0 200 200" xmlns="http://www.w3.org/2000/svg"><defs><radialGradient id="bg" cx="50%" cy="40%"><stop offset="0%" stop-color="#A7F3D0"/><stop offset="100%" stop-color="#059669"/></radialGradient></defs><circle cx="100" cy="105" r="82" fill="url(#bg)"/><circle cx="100" cy="110" rx="58" ry="46" fill="#E5E7EB"/><ellipse cx="76" cy="78" rx="16" ry="18" fill="#9CA3AF"/><ellipse cx="124" cy="78" rx="16" ry="18" fill="#9CA3AF"/><ellipse cx="76" cy="78" rx="10" ry="12" fill="#F9A8D4"/><ellipse cx="124" cy="78" rx="10" ry="12" fill="#F9A8D4"/><ellipse cx="76" cy="78" rx="6" ry="10" fill="#34D399"/><ellipse cx="124" cy="78" rx="6" ry="10" fill="#34D399"/><circle cx="72" cy="74" r="2.5" fill="white"/><circle cx="120" cy="74" r="2.5" fill="white"/><ellipse cx="100" cy="94" rx="7" ry="4.5" fill="#F9A8D4"/><path d="M94 100 Q100 107 106 100" stroke="#1C1917" stroke-width="2.2" fill="none" stroke-linecap="round"/><circle cx="60" cy="94" r="8" fill="#FCA5A5" opacity="0.5"/><circle cx="140" cy="94" r="8" fill="#FCA5A5" opacity="0.5"/><ellipse cx="50" cy="58" rx="18" ry="28" fill="#6B7280" transform="rotate(-25 50 58)"/><ellipse cx="150" cy="58" rx="18" ry="28" fill="#6B7280" transform="rotate(25 150 58)"/></svg>