<svg viewBox="0 0 200 200" xmlns="http://www.w3.org/2000/svg"><defs><radialGradient id="bg" cx="50%" cy="40%"><stop offset="0%" stop-color="#E0E7FF"/><stop offset="100%" stop-color="#4F46E5"/></radialGradient></defs><circle cx="100" cy="105" r="82" fill="url(#bg)"/><ellipse cx="100" cy="108" rx="35" ry="28" fill="#6366F1"/><path d="M85 85 Q70 70 80 95" fill="#818CF8" opacity="0.7"/><path d="M115 85 Q130 70 120 95" fill="#818CF8" opacity="0.7"/><path d="M85 130 Q70 145 80 120" fill="#818CF8" opacity="0.7"/><path d="M115 130 Q130 145 120 120" fill="#818CF8" opacity="0.7"/><path d="M135 108 Q155 90 158 108 Q155 126 135 108" fill="#818CF8"/><circle cx="88" cy="98" r="6" fill="white"/><circle cx="112" cy="98" r="6" fill="white"/><circle cx="88" cy="98" r="4" fill="#1C1917"/><circle cx="112" cy="98" r="4" fill="#1C1917"/><circle cx="86.5" cy="96.5" r="1.2" fill="white"/><circle cx="110.5" cy="96.5" r="1.2" fill="white"/><ellipse cx="100" cy="115" rx="2" ry="1.5" fill="#F9A8D4"/></svg>