<svg viewBox="0 0 200 200" xmlns="http://www.w3.org/2000/svg"><defs><radialGradient id="bg" cx="50%" cy="40%"><stop offset="0%" stop-color="#E9D5FF"/><stop offset="100%" stop-color="#7C3AED"/></radialGradient></defs><circle cx="100" cy="105" r="74" fill="url(#bg)"/><circle cx="100" cy="110" rx="50" ry="40" fill="#FCE7F3"/><ellipse cx="76" cy="78" rx="16" ry="18" fill="#F9A8D4"/><ellipse cx="124" cy="78" rx="16" ry="18" fill="#F9A8D4"/><ellipse cx="76" cy="78" rx="10" ry="12" fill="#F472B6"/><ellipse cx="124" cy="78" rx="10" ry="12" fill="#F472B6"/><ellipse cx="76" cy="78" rx="6" ry="10" fill="#60A5FA"/><ellipse cx="124" cy="78" rx="6" ry="10" fill="#60A5FA"/><circle cx="72" cy="74" r="2.5" fill="white"/><circle cx="120" cy="74" r="2.5" fill="white"/><ellipse cx="100" cy="94" rx="5" ry="3.5" fill="#F472B6"/><path d="M96 99 Q100 104 104 99" stroke="#1C1917" stroke-width="1.8" fill="none" stroke-linecap="round"/><circle cx="62" cy="94" r="7" fill="#FCA5A5" opacity="0.5"/><circle cx="138" cy="94" r="7" fill="#FCA5A5" opacity="0.5"/><path d="M84 66 Q100 54 116 66" stroke="#F9A8D4" stroke-width="4" fill="none" stroke-linecap="round"/></svg>