<svg viewBox="0 0 200 200" xmlns="http://www.w3.org/2000/svg"><defs><radialGradient id="bg" cx="50%" cy="40%"><stop offset="0%" stop-color="#FEE2E2"/><stop offset="100%" stop-color="#DC2626"/></radialGradient></defs><circle cx="100" cy="105" r="82" fill="url(#bg)"/><circle cx="55" cy="55" r="22" fill="#FCD34D"/><circle cx="145" cy="55" r="22" fill="#FCD34D"/><circle cx="55" cy="55" r="14" fill="#FCA5A5"/><circle cx="145" cy="55" r="14" fill="#FCA5A5"/><ellipse cx="100" cy="115" rx="52" ry="40" fill="#FCD34D"/><ellipse cx="76" cy="88" rx="12" ry="14" fill="white"/><ellipse cx="124" cy="88" rx="12" ry="14" fill="white"/><ellipse cx="76" cy="90" rx="7" ry="9" fill="#1C1917"/><ellipse cx="124" cy="90" rx="7" ry="9" fill="#1C1917"/><circle cx="73" cy="86" r="2" fill="white"/><circle cx="121" cy="86" r="2" fill="white"/><ellipse cx="100" cy="104" rx="5" ry="3.5" fill="#F9A8D4"/><path d="M96 109 Q100 114 104 109" stroke="#1C1917" stroke-width="1.8" fill="none" stroke-linecap="round"/><circle cx="62" cy="104" r="7" fill="#FCA5A5" opacity="0.5"/><circle cx="138" cy="104" r="7" fill="#FCA5A5" opacity="0.5"/><path d="M92 108 Q100 116 108 108" stroke="#3B82F6" stroke-width="3" fill="none" stroke-linecap="round"/><ellipse cx="100" cy="70" rx="30" ry="18" fill="#FCD34D"/></svg>