<svg viewBox="0 0 200 200" xmlns="http://www.w3.org/2000/svg"><defs><radialGradient id="bg" cx="50%" cy="40%"><stop offset="0%" stop-color="#FECACA"/><stop offset="100%" stop-color="#EF4444"/></radialGradient></defs><ellipse cx="100" cy="110" rx="78" ry="62" fill="url(#bg)"/><ellipse cx="100" cy="118" rx="58" ry="42" fill="#FDE68A"/><ellipse cx="76" cy="82" rx="16" ry="18" fill="#1C1917"/><ellipse cx="124" cy="82" rx="16" ry="18" fill="#1C1917"/><circle cx="71" cy="76" r="6" fill="white"/><circle cx="119" cy="76" r="6" fill="white"/><circle cx="74" cy="74" r="3" fill="#1C1917"/><circle cx="122" cy="74" r="3" fill="#1C1917"/><circle cx="68" cy="72" r="1.2" fill="white"/><circle cx="116" cy="72" r="1.2" fill="white"/><ellipse cx="100" cy="98" rx="9" ry="5" fill="#1C1917"/><path d="M93 105 Q100 114 107 105" stroke="#1C1917" stroke-width="2.5" fill="none" stroke-linecap="round"/><circle cx="56" cy="98" r="9" fill="#FCA5A5" opacity="0.5"/><circle cx="144" cy="98" r="9" fill="#FCA5A5" opacity="0.5"/><ellipse cx="55" cy="125" rx="30" ry="22" fill="#D97706" transform="rotate(-10 55 125)"/><ellipse cx="145" cy="125" rx="30" ry="22" fill="#D97706" transform="rotate(10 145 125)"/></svg>