<svg viewBox="0 0 200 200" xmlns="http://www.w3.org/2000/svg"><defs><radialGradient id="bg" cx="50%" cy="40%"><stop offset="0%" stop-color="#FED7AA"/><stop offset="100%" stop-color="#EA580C"/></radialGradient></defs><circle cx="100" cy="105" r="82" fill="url(#bg)"/><ellipse cx="100" cy="120" rx="55" ry="40" fill="#FDE68A"/><ellipse cx="76" cy="82" rx="14" ry="16" fill="#1C1917"/><ellipse cx="124" cy="82" rx="14" ry="16" fill="#1C1917"/><circle cx="72" cy="77" r="5.5" fill="white"/><circle cx="120" cy="77" r="5.5" fill="white"/><circle cx="74" cy="75" r="2.8" fill="#1C1917"/><circle cx="122" cy="75" r="2.8" fill="#1C1917"/><circle cx="69" cy="73" r="1.1" fill="white"/><circle cx="117" cy="73" r="1.1" fill="white"/><ellipse cx="100" cy="98" rx="7" ry="4.5" fill="#1C1917"/><path d="M94 104 Q100 112 106 104" stroke="#1C1917" stroke-width="2" fill="none" stroke-linecap="round"/><circle cx="58" cy="98" r="8" fill="#FCA5A5" opacity="0.5"/><circle cx="142" cy="98" r="8" fill="#FCA5A5" opacity="0.5"/><ellipse cx="46" cy="108" rx="20" ry="28" fill="#D97706" transform="rotate(-25 46 108)"/><ellipse cx="154" cy="108" rx="20" ry="28" fill="#D97706" transform="rotate(25 154 108)"/></svg>