<svg viewBox="0 0 200 200" xmlns="http://www.w3.org/2000/svg"><defs><radialGradient id="bg" cx="50%" cy="40%"><stop offset="0%" stop-color="#E9D5FF"/><stop offset="100%" stop-color="#9333EA"/></radialGradient></defs><circle cx="100" cy="100" r="80" fill="url(#bg)"/><circle cx="100" cy="105" rx="58" ry="48" fill="#F9FAFB"/><ellipse cx="76" cy="82" rx="12" ry="14" fill="#1C1917"/><ellipse cx="124" cy="82" rx="12" ry="14" fill="#1C1917"/><circle cx="72" cy="77" r="5" fill="white"/><circle cx="120" cy="77" r="5" fill="white"/><circle cx="74" cy="75" r="2.5" fill="#1C1917"/><circle cx="122" cy="75" r="2.5" fill="#1C1917"/><circle cx="69" cy="73" r="1" fill="white"/><circle cx="117" cy="73" r="1" fill="white"/><ellipse cx="100" cy="98" rx="7" ry="4" fill="#1C1917"/><path d="M94 104 Q100 111 106 104" stroke="#1C1917" stroke-width="2" fill="none" stroke-linecap="round"/><circle cx="58" cy="98" r="8" fill="#FCA5A5" opacity="0.5"/><circle cx="142" cy="98" r="8" fill="#FCA5A5" opacity="0.5"/><circle cx="56" cy="88" r="18" fill="#F3F4F6"/><circle cx="144" cy="88" r="18" fill="#F3F4F6"/><circle cx="100" cy="38" r="22" fill="#F3F4F6"/><circle cx="100" cy="26" r="14" fill="#E5E7EB"/></svg>