<svg viewBox="0 0 200 200" xmlns="http://www.w3.org/2000/svg"><defs><radialGradient id="bg" cx="50%" cy="40%"><stop offset="0%" stop-color="#FBCFE8"/><stop offset="100%" stop-color="#DB2777"/></radialGradient></defs><ellipse cx="100" cy="110" rx="74" ry="66" fill="url(#bg)"/><ellipse cx="100" cy="115" rx="54" ry="42" fill="#D1D5DB"/><ellipse cx="76" cy="82" rx="18" ry="20" fill="#1C1917"/><ellipse cx="124" cy="82" rx="18" ry="20" fill="#1C1917"/><circle cx="70" cy="74" r="7" fill="white"/><circle cx="118" cy="74" r="7" fill="white"/><circle cx="73" cy="72" r="3.5" fill="#1C1917"/><circle cx="121" cy="72" r="3.5" fill="#1C1917"/><circle cx="67" cy="70" r="1.5" fill="white"/><circle cx="115" cy="70" r="1.5" fill="white"/><ellipse cx="100" cy="102" rx="8" ry="5" fill="#1C1917"/><path d="M93 109 Q100 118 107 109" stroke="#1C1917" stroke-width="2.5" fill="none" stroke-linecap="round"/><circle cx="54" cy="102" r="10" fill="#FCA5A5" opacity="0.5"/><circle cx="146" cy="102" r="10" fill="#FCA5A5" opacity="0.5"/><ellipse cx="44" cy="115" rx="28" ry="24" fill="#6B7280" transform="rotate(-10 44 115)"/><ellipse cx="156" cy="115" rx="28" ry="24" fill="#6B7280" transform="rotate(10 156 115)"/></svg>