<svg viewBox="0 0 200 200" xmlns="http://www.w3.org/2000/svg"><defs><radialGradient id="bg" cx="50%" cy="40%"><stop offset="0%" stop-color="#FEF9C3"/><stop offset="100%" stop-color="#CA8A04"/></radialGradient></defs><circle cx="100" cy="105" r="82" fill="url(#bg)"/><ellipse cx="100" cy="112" rx="38" ry="35" fill="#FCD34D"/><path d="M85 75 Q90 55 95 75 Q100 60 105 75 Q110 55 115 75" fill="#FCD34D"/><ellipse cx="78" cy="100" rx="12" ry="8" fill="#FCA5A5" opacity="0.5"/><ellipse cx="122" cy="100" rx="12" ry="8" fill="#FCA5A5" opacity="0.5"/><polygon points="100,108 96,115 104,115" fill="#9CA3AF"/><circle cx="88" cy="92" r="6" fill="white"/><circle cx="112" cy="92" r="6" fill="white"/><circle cx="88" cy="92" r="4" fill="#1C1917"/><circle cx="112" cy="92" r="4" fill="#1C1917"/><circle cx="86.5" cy="90.5" r="1.2" fill="white"/><circle cx="110.5" cy="90.5" r="1.2" fill="white"/><circle cx="70" cy="100" r="5" fill="#FCA5A5" opacity="0.4"/><circle cx="130" cy="100" r="5" fill="#FCA5A5" opacity="0.4"/></svg>