<svg viewBox="0 0 200 200" xmlns="http://www.w3.org/2000/svg"><defs><radialGradient id="bg" cx="50%" cy="40%"><stop offset="0%" stop-color="#D9F99D"/><stop offset="100%" stop-color="#84CC16"/></radialGradient></defs><circle cx="100" cy="105" r="82" fill="url(#bg)"/><circle cx="100" cy="110" rx="58" ry="46" fill="#A0896C"/><ellipse cx="76" cy="78" rx="16" ry="18" fill="#8B7355"/><ellipse cx="124" cy="78" rx="16" ry="18" fill="#8B7355"/><ellipse cx="76" cy="78" rx="10" ry="12" fill="#F9A8D4"/><ellipse cx="124" cy="78" rx="10" ry="12" fill="#F9A8D4"/><ellipse cx="76" cy="78" rx="6" ry="10" fill="#34D399"/><ellipse cx="124" cy="78" rx="6" ry="10" fill="#34D399"/><circle cx="72" cy="74" r="2.5" fill="white"/><circle cx="120" cy="74" r="2.5" fill="white"/><ellipse cx="100" cy="94" rx="7" ry="4.5" fill="#F9A8D4"/><path d="M94 100 Q100 107 106 100" stroke="#1C1917" stroke-width="2.2" fill="none" stroke-linecap="round"/><circle cx="60" cy="94" r="8" fill="#FCA5A5" opacity="0.5"/><circle cx="140" cy="94" r="8" fill="#FCA5A5" opacity="0.5"/><ellipse cx="54" cy="62" rx="16" ry="26" fill="#6B5B3D" transform="rotate(-20 54 62)"/><ellipse cx="146" cy="62" rx="16" ry="26" fill="#6B5B3D" transform="rotate(20 146 62)"/></svg>