<svg viewBox="0 0 200 200" xmlns="http://www.w3.org/2000/svg"><defs><radialGradient id="bg" cx="50%" cy="40%"><stop offset="0%" stop-color="#FEF9C3"/><stop offset="100%" stop-color="#CA8A04"/></radialGradient></defs><circle cx="100" cy="105" r="82" fill="url(#bg)"/><circle cx="70" cy="72" r="8" fill="#D4A574"/><circle cx="130" cy="72" r="8" fill="#D4A574"/><circle cx="70" cy="72" r="5" fill="#FDE68A"/><circle cx="130" cy="72" r="5" fill="#FDE68A"/><ellipse cx="100" cy="112" rx="44" ry="38" fill="#D4A574"/><ellipse cx="100" cy="116" rx="30" ry="24" fill="#FEF9E7" opacity="0.7"/><ellipse cx="100" cy="82" rx="18" ry="5" fill="#FEFEFE" opacity="0.5"/><circle cx="88" cy="95" r="6" fill="white"/><circle cx="112" cy="95" r="6" fill="white"/><circle cx="88" cy="95" r="4" fill="#1C1917"/><circle cx="112" cy="95" r="4" fill="#1C1917"/><circle cx="86.5" cy="93.5" r="1.2" fill="white"/><circle cx="110.5" cy="93.5" r="1.2" fill="white"/><ellipse cx="100" cy="102" rx="3.5" ry="2.5" fill="#F9A8D4"/><path d="M97 106 Q100 109 103 106" stroke="#1C1917" stroke-width="1.5" fill="none" stroke-linecap="round"/><circle cx="70" cy="100" r="5" fill="#FCA5A5" opacity="0.4"/><circle cx="130" cy="100" r="5" fill="#FCA5A5" opacity="0.4"/></svg>