<svg viewBox="0 0 200 200" xmlns="http://www.w3.org/2000/svg"><defs><radialGradient id="bg" cx="50%" cy="40%"><stop offset="0%" stop-color="#FCE7F3"/><stop offset="100%" stop-color="#EC4899"/></radialGradient></defs><circle cx="100" cy="105" r="82" fill="url(#bg)"/><ellipse cx="60" cy="58" rx="18" ry="14" fill="#D1D5DB" transform="rotate(-30 60 58)"/><ellipse cx="140" cy="58" rx="18" ry="14" fill="#D1D5DB" transform="rotate(30 140 58)"/><ellipse cx="100" cy="115" rx="52" ry="40" fill="#D1D5DB"/><ellipse cx="76" cy="88" rx="12" ry="14" fill="white"/><ellipse cx="124" cy="88" rx="12" ry="14" fill="white"/><ellipse cx="76" cy="90" rx="7" ry="9" fill="#F59E0B"/><ellipse cx="124" cy="90" rx="7" ry="9" fill="#F59E0B"/><circle cx="73" cy="86" r="2" fill="white"/><circle cx="121" cy="86" r="2" fill="white"/><ellipse cx="100" cy="104" rx="5" ry="3.5" fill="#F9A8D4"/><path d="M96 109 Q100 114 104 109" stroke="#1C1917" stroke-width="1.8" fill="none" stroke-linecap="round"/><circle cx="62" cy="104" r="7" fill="#FCA5A5" opacity="0.5"/><circle cx="138" cy="104" r="7" fill="#FCA5A5" opacity="0.5"/><ellipse cx="100" cy="115" rx="30" ry="12" fill="#E5E7EB"/></svg>