<svg viewBox="0 0 200 200" xmlns="http://www.w3.org/2000/svg"><defs><radialGradient id="bg" cx="50%" cy="40%"><stop offset="0%" stop-color="#D1FAE5"/><stop offset="100%" stop-color="#059669"/></radialGradient></defs><circle cx="100" cy="105" r="82" fill="url(#bg)"/><ellipse cx="100" cy="112" rx="38" ry="35" fill="#10B981"/><path d="M85 82 Q100 70 115 82" fill="#FCD34D" opacity="0.6"/><path d="M75 95 L80 90 L85 95" stroke="#065F46" stroke-width="2" fill="none"/><path d="M95 92 L100 87 L105 92" stroke="#065F46" stroke-width="2" fill="none"/><path d="M115 95 L120 90 L125 95" stroke="#065F46" stroke-width="2" fill="none"/><polygon points="100,108 96,115 104,115" fill="#F59E0B"/><circle cx="88" cy="95" r="6" fill="white"/><circle cx="112" cy="95" r="6" fill="white"/><circle cx="88" cy="95" r="4" fill="#1C1917"/><circle cx="112" cy="95" r="4" fill="#1C1917"/><circle cx="86.5" cy="93.5" r="1.2" fill="white"/><circle cx="110.5" cy="93.5" r="1.2" fill="white"/><circle cx="70" cy="100" r="5" fill="#FCA5A5" opacity="0.4"/><circle cx="130" cy="100" r="5" fill="#FCA5A5" opacity="0.4"/></svg>