<svg viewBox="0 0 200 200" xmlns="http://www.w3.org/2000/svg"><defs><radialGradient id="bg" cx="50%" cy="40%"><stop offset="0%" stop-color="#C7D2FE"/><stop offset="100%" stop-color="#6366F1"/></radialGradient></defs><circle cx="100" cy="105" r="82" fill="url(#bg)"/><ellipse cx="60" cy="80" rx="18" ry="14" fill="#9CA3AF"/><ellipse cx="140" cy="80" rx="18" ry="14" fill="#9CA3AF"/><ellipse cx="60" cy="80" rx="12" ry="8" fill="#F9A8D4" opacity="0.4"/><ellipse cx="140" cy="80" rx="12" ry="8" fill="#F9A8D4" opacity="0.4"/><ellipse cx="100" cy="112" rx="45" ry="40" fill="#9CA3AF"/><ellipse cx="100" cy="118" rx="30" ry="25" fill="#D1D5DB" opacity="0.6"/><ellipse cx="100" cy="85" rx="25" ry="15" fill="#1C1917" opacity="0.5"/><ellipse cx="85" cy="88" rx="10" ry="12" fill="white"/><ellipse cx="115" cy="88" rx="10" ry="12" fill="white"/><ellipse cx="85" cy="90" rx="6" ry="8" fill="#1C1917"/><ellipse cx="115" cy="90" rx="6" ry="8" fill="#1C1917"/><circle cx="83" cy="86" r="2" fill="white"/><circle cx="113" cy="86" r="2" fill="white"/><ellipse cx="100" cy="100" rx="3.5" ry="2.5" fill="#F9A8D4"/><path d="M97 104 Q100 107 103 104" stroke="#1C1917" stroke-width="1.5" fill="none" stroke-linecap="round"/><circle cx="70" cy="100" r="5" fill="#FCA5A5" opacity="0.4"/><circle cx="130" cy="100" r="5" fill="#FCA5A5" opacity="0.4"/></svg>