<svg viewBox="0 0 200 200" xmlns="http://www.w3.org/2000/svg"><defs><radialGradient id="bg" cx="50%" cy="40%"><stop offset="0%" stop-color="#FEF9C3"/><stop offset="100%" stop-color="#CA8A04"/></radialGradient></defs><circle cx="100" cy="105" r="82" fill="url(#bg)"/><ellipse cx="100" cy="112" rx="48" ry="35" fill="#FBBF24"/><ellipse cx="100" cy="118" rx="32" ry="22" fill="#FDE68A" opacity="0.6"/><circle cx="78" cy="105" r="4" fill="#92400E" opacity="0.7"/><circle cx="92" cy="115" r="3" fill="#92400E" opacity="0.7"/><circle cx="112" cy="108" r="4" fill="#92400E" opacity="0.7"/><circle cx="125" cy="118" r="3" fill="#92400E" opacity="0.7"/><ellipse cx="55" cy="120" rx="15" ry="8" fill="#FBBF24" transform="rotate(-20 55 120)"/><ellipse cx="145" cy="120" rx="15" ry="8" fill="#FBBF24" transform="rotate(20 145 120)"/><ellipse cx="85" cy="90" rx="8" ry="10" fill="white"/><ellipse cx="115" cy="90" rx="8" ry="10" fill="white"/><ellipse cx="85" cy="91" rx="5" ry="7" fill="#10B981"/><ellipse cx="115" cy="91" rx="5" ry="7" fill="#10B981"/><circle cx="83" cy="88" r="1.5" fill="white"/><circle cx="113" cy="88" r="1.5" fill="white"/><ellipse cx="100" cy="100" rx="3.5" ry="2.5" fill="#F9A8D4"/><path d="M97 104 Q100 107 103 104" stroke="#1C1917" stroke-width="1.5" fill="none" stroke-linecap="round"/></svg>