<svg viewBox="0 0 200 200" xmlns="http://www.w3.org/2000/svg"><defs><radialGradient id="bg" cx="50%" cy="40%"><stop offset="0%" stop-color="#D1FAE5"/><stop offset="100%" stop-color="#10B981"/></radialGradient></defs><circle cx="100" cy="100" r="80" fill="url(#bg)"/><circle cx="100" cy="105" rx="60" ry="50" fill="#E8C9A0"/><ellipse cx="76" cy="82" rx="12" ry="14" fill="#1C1917"/><ellipse cx="124" cy="82" rx="12" ry="14" fill="#1C1917"/><circle cx="72" cy="77" r="5" fill="white"/><circle cx="120" cy="77" r="5" fill="white"/><circle cx="74" cy="75" r="2.5" fill="#1C1917"/><circle cx="122" cy="75" r="2.5" fill="#1C1917"/><circle cx="69" cy="73" r="1" fill="white"/><circle cx="117" cy="73" r="1" fill="white"/><ellipse cx="100" cy="98" rx="7" ry="4" fill="#1C1917"/><path d="M94 104 Q100 111 106 104" stroke="#1C1917" stroke-width="2" fill="none" stroke-linecap="round"/><circle cx="58" cy="98" r="8" fill="#FCA5A5" opacity="0.5"/><circle cx="142" cy="98" r="8" fill="#FCA5A5" opacity="0.5"/><circle cx="60" cy="90" r="18" fill="#C49A6C"/><circle cx="140" cy="90" r="18" fill="#C49A6C"/><circle cx="100" cy="42" r="22" fill="#C49A6C"/><circle cx="100" cy="30" r="14" fill="#B8915A"/></svg>