<svg viewBox="0 0 200 200" xmlns="http://www.w3.org/2000/svg"><defs><radialGradient id="bg" cx="50%" cy="40%"><stop offset="0%" stop-color="#DDD6FE"/><stop offset="100%" stop-color="#7C3AED"/></radialGradient></defs><circle cx="100" cy="100" r="95" fill="url(#bg)"/><ellipse cx="100" cy="120" rx="52" ry="42" fill="#374151"/><polygon points="62,70 100,48 138,70" fill="#F9FAFB"/><ellipse cx="76" cy="82" rx="16" ry="18" fill="#1C1917"/><ellipse cx="124" cy="82" rx="16" ry="18" fill="#1C1917"/><circle cx="71" cy="76" r="6" fill="white"/><circle cx="119" cy="76" r="6" fill="white"/><circle cx="74" cy="74" r="3" fill="#1C1917"/><circle cx="122" cy="74" r="3" fill="#1C1917"/><circle cx="68" cy="72" r="1.2" fill="white"/><circle cx="116" cy="72" r="1.2" fill="white"/><ellipse cx="100" cy="100" rx="10" ry="6" fill="#1C1917"/><path d="M92 108 Q100 118 108 108" stroke="#1C1917" stroke-width="2.5" fill="none" stroke-linecap="round"/><circle cx="56" cy="100" r="9" fill="#FCA5A5" opacity="0.4"/><circle cx="144" cy="100" r="9" fill="#FCA5A5" opacity="0.4"/><ellipse cx="46" cy="110" rx="22" ry="32" fill="#4B5563" transform="rotate(-20 46 110)"/><ellipse cx="154" cy="110" rx="22" ry="32" fill="#4B5563" transform="rotate(20 154 110)"/></svg>