<svg viewBox="0 0 200 200" xmlns="http://www.w3.org/2000/svg"><defs><radialGradient id="bg" cx="50%" cy="40%"><stop offset="0%" stop-color="#FEF3C7"/><stop offset="100%" stop-color="#F59E0B"/></radialGradient></defs><circle cx="100" cy="100" r="95" fill="url(#bg)"/><ellipse cx="100" cy="125" rx="55" ry="45" fill="#FCD34D"/><ellipse cx="100" cy="130" rx="42" ry="32" fill="#FEF3C7"/><ellipse cx="75" cy="82" rx="18" ry="20" fill="#1C1917"/><ellipse cx="125" cy="82" rx="18" ry="20" fill="#1C1917"/><circle cx="70" cy="76" r="7" fill="white"/><circle cx="120" cy="76" r="7" fill="white"/><circle cx="73" cy="74" r="3.5" fill="#1C1917"/><circle cx="123" cy="74" r="3.5" fill="#1C1917"/><circle cx="67" cy="72" r="1.5" fill="white"/><circle cx="117" cy="72" r="1.5" fill="white"/><ellipse cx="100" cy="100" rx="10" ry="7" fill="#1C1917"/><path d="M92 108 Q100 118 108 108" stroke="#1C1917" stroke-width="3" fill="none" stroke-linecap="round"/><circle cx="55" cy="100" r="10" fill="#FCA5A5" opacity="0.5"/><circle cx="145" cy="100" r="10" fill="#FCA5A5" opacity="0.5"/><ellipse cx="48" cy="110" rx="22" ry="30" fill="#F59E0B" transform="rotate(-20 48 110)"/><ellipse cx="152" cy="110" rx="22" ry="30" fill="#F59E0B" transform="rotate(20 152 110)"/></svg>