<svg viewBox="0 0 200 200" xmlns="http://www.w3.org/2000/svg"><defs><radialGradient id="bg" cx="50%" cy="40%"><stop offset="0%" stop-color="#E0E7FF"/><stop offset="100%" stop-color="#6366F1"/></radialGradient></defs><circle cx="100" cy="100" r="95" fill="url(#bg)"/><ellipse cx="100" cy="125" rx="55" ry="44" fill="#F3F4F6"/><ellipse cx="74" cy="82" rx="16" ry="18" fill="#1C1917"/><ellipse cx="126" cy="82" rx="16" ry="18" fill="#1C1917"/><circle cx="69" cy="76" r="6" fill="white"/><circle cx="121" cy="76" r="6" fill="white"/><circle cx="72" cy="74" r="3" fill="#1C1917"/><circle cx="124" cy="74" r="3" fill="#1C1917"/><circle cx="66" cy="72" r="1.2" fill="white"/><circle cx="118" cy="72" r="1.2" fill="white"/><ellipse cx="100" cy="102" rx="12" ry="7" fill="#1C1917"/><path d="M90 110 Q100 122 110 110" stroke="#1C1917" stroke-width="3" fill="none" stroke-linecap="round"/><circle cx="54" cy="102" r="10" fill="#FCA5A5" opacity="0.5"/><circle cx="146" cy="102" r="10" fill="#FCA5A5" opacity="0.5"/><ellipse cx="38" cy="110" rx="26" ry="36" fill="#D1D5DB" transform="rotate(-20 38 110)"/><ellipse cx="162" cy="110" rx="26" ry="36" fill="#D1D5DB" transform="rotate(20 162 110)"/></svg>