<svg viewBox="0 0 200 200" xmlns="http://www.w3.org/2000/svg"><defs><radialGradient id="bg" cx="50%" cy="40%"><stop offset="0%" stop-color="#F3F4F6"/><stop offset="100%" stop-color="#6B7280"/></radialGradient></defs><circle cx="100" cy="105" r="82" fill="url(#bg)"/><ellipse cx="72" cy="68" rx="10" ry="8" fill="#FEFEFE"/><ellipse cx="128" cy="68" rx="10" ry="8" fill="#FEFEFE"/><ellipse cx="100" cy="112" rx="48" ry="35" fill="#FEFEFE"/><ellipse cx="100" cy="90" rx="30" ry="18" fill="#1C1917" opacity="0.8"/><ellipse cx="100" cy="118" rx="32" ry="22" fill="#FEFEFE" opacity="0.5"/><ellipse cx="85" cy="88" rx="8" ry="10" fill="white"/><ellipse cx="115" cy="88" rx="8" ry="10" fill="white"/><ellipse cx="85" cy="89" rx="5" ry="7" fill="#1C1917"/><ellipse cx="115" cy="89" rx="5" ry="7" fill="#1C1917"/><circle cx="83" cy="86" r="1.5" fill="white"/><circle cx="113" cy="86" r="1.5" fill="white"/><ellipse cx="100" cy="100" rx="3.5" ry="2.5" fill="#F9A8D4"/><path d="M97 104 Q100 107 103 104" stroke="#1C1917" stroke-width="1.5" fill="none" stroke-linecap="round"/><circle cx="70" cy="100" r="5" fill="#FCA5A5" opacity="0.4"/><circle cx="130" cy="100" r="5" fill="#FCA5A5" opacity="0.4"/></svg>