<svg viewBox="0 0 200 200" xmlns="http://www.w3.org/2000/svg"><defs><radialGradient id="bg" cx="50%" cy="40%"><stop offset="0%" stop-color="#D1D5DB"/><stop offset="100%" stop-color="#374151"/></radialGradient></defs><circle cx="100" cy="105" r="82" fill="url(#bg)"/><path d="M60 80 L65 60 L70 80 L75 60 L80 80 L85 60 L90 80 L95 60 L100 80 L105 60 L110 80 L115 60 L120 80 L125 60 L130 80 L135 60 L140 80" fill="#6B7280"/><ellipse cx="100" cy="115" rx="45" ry="38" fill="#D4A574"/><ellipse cx="100" cy="122" rx="30" ry="22" fill="#FEF9E7" opacity="0.6"/><ellipse cx="85" cy="92" rx="8" ry="10" fill="white"/><ellipse cx="115" cy="92" rx="8" ry="10" fill="white"/><ellipse cx="85" cy="93" rx="5" ry="7" fill="#1C1917"/><ellipse cx="115" cy="93" rx="5" ry="7" fill="#1C1917"/><circle cx="83" cy="90" r="1.5" fill="white"/><circle cx="113" cy="90" r="1.5" fill="white"/><ellipse cx="100" cy="105" rx="3.5" ry="2.5" fill="#F9A8D4"/><path d="M97 109 Q100 112 103 109" stroke="#1C1917" stroke-width="1.5" fill="none" stroke-linecap="round"/><circle cx="70" cy="100" r="5" fill="#FCA5A5" opacity="0.4"/><circle cx="130" cy="100" r="5" fill="#FCA5A5" opacity="0.4"/></svg>