<svg viewBox="0 0 200 200" xmlns="http://www.w3.org/2000/svg"><defs><radialGradient id="bg" cx="50%" cy="40%"><stop offset="0%" stop-color="#FED7AA"/><stop offset="100%" stop-color="#C2410C"/></radialGradient></defs><circle cx="100" cy="105" r="82" fill="url(#bg)"/><ellipse cx="100" cy="112" rx="50" ry="38" fill="#D4A574"/><path d="M65 95 L70 85 L75 95 L80 85 L85 95 L90 85 L95 95" fill="#92400E" opacity="0.6"/><path d="M105 95 L110 85 L115 95 L120 85 L125 95 L130 85 L135 95" fill="#92400E" opacity="0.6"/><ellipse cx="55" cy="125" rx="18" ry="10" fill="#D4A574" transform="rotate(-15 55 125)"/><ellipse cx="145" cy="125" rx="18" ry="10" fill="#D4A574" transform="rotate(15 145 125)"/><ellipse cx="85" cy="92" rx="8" ry="10" fill="white"/><ellipse cx="115" cy="92" rx="8" ry="10" fill="white"/><ellipse cx="85" cy="93" rx="5" ry="7" fill="#1C1917"/><ellipse cx="115" cy="93" rx="5" ry="7" fill="#1C1917"/><circle cx="83" cy="90" r="1.5" fill="white"/><circle cx="113" cy="90" r="1.5" fill="white"/><ellipse cx="100" cy="102" rx="3.5" ry="2.5" fill="#F9A8D4"/><path d="M97 106 Q100 109 103 106" stroke="#1C1917" stroke-width="1.5" fill="none" stroke-linecap="round"/></svg>