<svg viewBox="0 0 200 200" xmlns="http://www.w3.org/2000/svg"><defs><radialGradient id="bg" cx="50%" cy="40%"><stop offset="0%" stop-color="#D1D5DB"/><stop offset="100%" stop-color="#4B5563"/></radialGradient></defs><circle cx="100" cy="105" r="82" fill="url(#bg)"/><circle cx="65" cy="72" r="16" fill="#9CA3AF"/><circle cx="135" cy="72" r="16" fill="#9CA3AF"/><circle cx="65" cy="72" r="10" fill="#F9A8D4" opacity="0.3"/><circle cx="135" cy="72" r="10" fill="#F9A8D4" opacity="0.3"/><ellipse cx="100" cy="112" rx="48" ry="42" fill="#9CA3AF"/><ellipse cx="100" cy="118" rx="32" ry="25" fill="#D1D5DB" opacity="0.6"/><ellipse cx="85" cy="90" rx="8" ry="10" fill="white"/><ellipse cx="115" cy="90" rx="8" ry="10" fill="white"/><ellipse cx="85" cy="91" rx="5" ry="7" fill="#1C1917"/><ellipse cx="115" cy="91" rx="5" ry="7" fill="#1C1917"/><circle cx="83" cy="88" r="1.5" fill="white"/><circle cx="113" cy="88" r="1.5" fill="white"/><ellipse cx="100" cy="100" rx="3.5" ry="2.5" fill="#F9A8D4"/><path d="M97 104 Q100 107 103 104" stroke="#1C1917" stroke-width="1.5" fill="none" stroke-linecap="round"/><circle cx="70" cy="100" r="5" fill="#FCA5A5" opacity="0.4"/><circle cx="130" cy="100" r="5" fill="#FCA5A5" opacity="0.4"/></svg>